<svg width="100" height="100" viewBox="0 0 100 100" fill="none" xmlns="http://www.w3.org/2000/svg">
<circle cx="50" cy="50" r="47.5" fill="#C0C3A1" stroke="#042939" stroke-width="5"/>
<path d="M81.0001 47H95.0001V53.5H81.0001L74.5 53.5C74.1688 57.9706 70.7451 67.2775 59.7183 68.9677L58.5 62.5C60.8333 62 65.9 60 67.5 56C69.1 52 68.8333 48.6667 68.5 47.5C68.5 46.1667 67.7 42.9 64.5 40.5C63 39.5 61 39.3333 60 39.5C56 40 53.5 44.6667 53 47.5C50.6 57.1 48.3333 61.8333 47.5 63C45 67.5 41.6723 68.3319 39 69C37 69.5 32.3 69.7 27.5 66.5C22.7001 63.3 21.1667 56.5 21 53.5H5V47H21C22.6 36.2 32 31.8333 36.5 31L37.5 37.5C30.7 38.3 28 44.1667 27.5 47C26 57 29.5 60.5 32.0001 62C38.5001 65.5 42.5001 60.1667 43.5001 57L46.5001 46.5C48 42 49.5 38.5 52 36C56 32 62.5 32.5 65 33.5C71 35.5 74.5 41 74.5 47L81.0001 47Z" fill="#042939"/>
</svg>
